<?xml version="1.0" encoding="UTF-8" standalone="no"?>
<svg width="18px" height="25px" viewBox="0 0 18 25" version="1.1" xmlns="http://www.w3.org/2000/svg" xmlns:xlink="http://www.w3.org/1999/xlink" xmlns:sketch="http://www.bohemiancoding.com/sketch/ns">
    <!-- Generator: Sketch 3.2.2 (9983) - http://www.bohemiancoding.com/sketch -->
    <title>Shape</title>
    <desc>Created with Sketch.</desc>
    <defs></defs>
    <g id="Day-page" stroke="none" stroke-width="1" fill="none" fill-rule="evenodd" sketch:type="MSPage">
        <g id="HTC-One" sketch:type="MSArtboardGroup" transform="translate(-50.000000, -634.000000)" fill="#FFFFFF">
            <g id="Artists" sketch:type="MSLayerGroup" transform="translate(0.000000, 354.000000)">
                <g id="Artist" transform="translate(0.000000, 0.500000)" sketch:type="MSShapeGroup">
                    <path d="M59,279.54208 C54.0379771,279.54208 50,283.655539 50,288.711488 C50,295.249673 57.701036,303.752338 58.0293348,304.110584 C58.2798528,304.385582 58.6312159,304.54208 59,304.54208 C59.3678026,304.54208 59.7191658,304.385832 59.9704198,304.110584 C60.2987186,303.752588 68,295.249673 68,288.711488 C67.9997546,283.655289 63.9620229,279.54208 59,279.54208 L59,279.54208 Z M55.4476009,288.422741 C55.4476009,286.423261 57.0380589,284.802278 59,284.802278 C60.9619411,284.802278 62.5523991,286.422761 62.5523991,288.422741 C62.5523991,290.421721 60.9621865,292.042205 59,292.042205 C57.0383043,292.041955 55.4476009,290.421471 55.4476009,288.422741 L55.4476009,288.422741 Z" id="Shape"></path>
                </g>
            </g>
        </g>
    </g>
</svg>