<?xml version="1.0" encoding="UTF-8" standalone="no"?>
<svg width="22px" height="22px" viewBox="0 0 22 22" version="1.1" xmlns="http://www.w3.org/2000/svg" xmlns:xlink="http://www.w3.org/1999/xlink" xmlns:sketch="http://www.bohemiancoding.com/sketch/ns">
    <!-- Generator: Sketch 3.2.2 (9983) - http://www.bohemiancoding.com/sketch -->
    <title>Play icon</title>
    <desc>Created with Sketch.</desc>
    <defs></defs>
    <g id="Front-page" stroke="none" stroke-width="1" fill="none" fill-rule="evenodd" sketch:type="MSPage">
        <g id="HTC-One" sketch:type="MSArtboardGroup" transform="translate(-42.000000, -2730.000000)" fill="#FFFFFF">
            <g id="Artists" sketch:type="MSLayerGroup" transform="translate(0.000000, 2110.000000)">
                <g id="Artist" transform="translate(0.000000, 341.000000)" sketch:type="MSShapeGroup">
                    <g id="preview" transform="translate(41.000000, 278.000000)">
                        <g id="Play-icon">
                            <path d="M9,17 L9,7 L17,12 L9,17 Z" id="Triangle-1"></path>
                            <path d="M23,12 C23,5.92486775 18.0751322,1 12,1 C5.92486775,1 1,5.92486775 1,12 C1,18.0751322 5.92486775,23 12,23 C18.0751322,23 23,18.0751322 23,12 Z M21,12 C21,7.02943725 16.9705627,3 12,3 C7.02943725,3 3,7.02943725 3,12 C3,16.9705627 7.02943725,21 12,21 C16.9705627,21 21,16.9705627 21,12 Z" id="Oval-1"></path>
                        </g>
                    </g>
                </g>
            </g>
        </g>
    </g>
</svg>