<?xml version="1.0" encoding="UTF-8" standalone="no"?>
<svg width="44px" height="24px" viewBox="0 0 44 24" version="1.1" xmlns="http://www.w3.org/2000/svg" xmlns:xlink="http://www.w3.org/1999/xlink" xmlns:sketch="http://www.bohemiancoding.com/sketch/ns">
    <!-- Generator: Sketch 3.2.2 (9983) - http://www.bohemiancoding.com/sketch -->
    <title>close button</title>
    <desc>Created with Sketch.</desc>
    <defs></defs>
    <g id="Artist-page" stroke="none" stroke-width="1" fill="none" fill-rule="evenodd" sketch:type="MSPage">
        <g id="HTC-One" sketch:type="MSArtboardGroup" transform="translate(-40.000000, -195.000000)" fill="#FFFFFF">
            <g id="Header" sketch:type="MSLayerGroup" transform="translate(0.000000, 164.000000)">
                <g id="close-button" transform="translate(62.072853, 35.427373) scale(1, -1) rotate(-315.000000) translate(-62.072853, -35.427373) translate(46.572853, 19.427373)" sketch:type="MSShapeGroup">
                    <path d="M2.14005282,3.31696686 C2.10614664,2.81782469 2.47581363,2.38460152 2.96587584,2.34932513 L29.285994,0.454711354 C29.7759897,0.419439761 30.2014669,0.806829866 30.2346022,1.29462335 L30.5047295,5.27124155 C30.5386357,5.77038373 30.1689687,6.2036069 29.6789065,6.23888329 L3.35878829,8.13349706 C2.86879265,8.16876866 2.44331541,7.78137855 2.41018013,7.29358507 L2.14005282,3.31696686 L2.14005282,3.31696686 Z" id="Rectangle-7"></path>
                    <path d="M2.84728048,2.58893839 C2.36239951,2.55403497 1.94155414,2.93457452 1.90728565,3.43905032 L0.0668036989,30.5332896 C0.0325398658,31.0376969 0.408861682,31.4756882 0.882718209,31.5097981 L4.74571875,31.7878703 C5.23059972,31.8227737 5.65144509,31.4422342 5.68571358,30.9377584 L7.52619553,3.84351902 C7.56045937,3.33911175 7.18413755,2.90112047 6.71028102,2.86701062 L2.84728048,2.58893839 L2.84728048,2.58893839 Z" id="Rectangle-8"></path>
                </g>
            </g>
        </g>
    </g>
</svg>