<?xml version="1.0" encoding="UTF-8" standalone="no"?>
<svg width="47px" height="23px" viewBox="0 0 47 23" version="1.1" xmlns="http://www.w3.org/2000/svg" xmlns:xlink="http://www.w3.org/1999/xlink" xmlns:sketch="http://www.bohemiancoding.com/sketch/ns">
    <!-- Generator: Sketch 3.2.2 (9983) - http://www.bohemiancoding.com/sketch -->
    <title>Soundcloud logo</title>
    <desc>Created with Sketch.</desc>
    <defs>
        <path d="M29.5322471,52.357628 C29.4341883,52.357628 29.3563478,52.4393456 29.3437114,52.5559293 L29,55.3697371 L29.3437114,58.1350591 C29.3563478,58.2516428 29.4341883,58.3328156 29.5322471,58.3328156 C29.6272732,58.3328156 29.7046083,58.2521876 29.719772,58.1361487 L29.719772,58.1361487 L29.719772,58.1356039 C29.719772,58.1356039 29.719772,58.1356039 29.719772,58.1361487 L30.127171,55.3697371 L29.719772,52.5553845 C29.7051137,52.4393456 29.6267678,52.357628 29.5322471,52.357628 L29.5322471,52.357628 Z M31.465118,50.8202484 C31.4489434,50.6993065 31.3685756,50.6159546 31.2695058,50.6159546 C31.1699306,50.6159546 31.087541,50.7020304 31.0738936,50.8202484 C31.0738936,50.821338 30.6119051,55.3697371 30.6119051,55.3697371 L31.0738936,59.8184408 C31.0870355,59.9377484 31.1694252,60.0238242 31.2695058,60.0238242 C31.3680701,60.0238242 31.4484379,59.9399275 31.4646126,59.8195303 L31.9902888,55.3697371 L31.465118,50.8202484 L31.465118,50.8202484 Z M38.7457332,46.6237796 C38.5561865,46.6237796 38.3994945,46.7910282 38.3903963,47.0034939 L38.022423,55.3735506 L38.3903963,60.7827079 C38.4,60.994084 38.5561865,61.1607878 38.7457332,61.1607878 C38.934269,61.1607878 39.0904554,60.9935392 39.1015755,60.7816183 L39.1015755,60.7832527 L39.5175673,55.3735506 L39.1015755,47.0034939 C39.0904554,46.7910282 38.934269,46.6237796 38.7457332,46.6237796 L38.7457332,46.6237796 Z M34.9775448,49.5329246 C34.8319729,49.5329246 34.7131903,49.6582248 34.7015648,49.8254734 L34.2870893,55.3713714 L34.7015648,60.7369461 C34.7126848,60.9031051 34.8319729,61.0284053 34.9775448,61.0284053 C35.1216003,61.0284053 35.2403829,60.9031051 35.2530193,60.7369461 L35.724106,55.3713714 L35.2530193,49.8243838 C35.2403829,49.6582248 35.1216003,49.5329246 34.9775448,49.5329246 L34.9775448,49.5329246 Z M42.575082,61.160243 C42.8101199,61.160243 43.001183,60.9559491 43.0107867,60.6944529 L43.3716836,55.3762745 L43.0112921,44.232724 C43.0016884,43.9712278 42.8106254,43.7669339 42.5755875,43.7669339 C42.3385277,43.7669339 42.1469592,43.9717726 42.1393773,44.2332688 C42.1393773,44.2338136 41.8194225,55.3757297 41.8194225,55.3757297 L42.1393773,60.6960873 C42.1469592,60.9554043 42.3385277,61.160243 42.575082,61.160243 L42.575082,61.160243 Z M50.4147336,61.185303 C50.7382266,61.185303 51.0051084,60.898202 51.0111738,60.5451822 L51.0111738,60.5489957 L51.0111738,60.5451822 L51.2628919,55.3795432 L51.0111738,42.5095732 C51.0056138,42.1570981 50.7382266,41.8694523 50.4147336,41.8694523 C50.0907351,41.8694523 49.8233479,42.1565533 49.8182933,42.5101179 L49.5933645,55.3751849 C49.5933645,55.3833567 49.8182933,60.5484509 49.8182933,60.5484509 C49.8233479,60.898202 50.0912405,61.185303 50.4147336,61.185303 L50.4147336,61.185303 Z M46.4650858,61.1651461 C46.7466258,61.1651461 46.9735764,60.9216277 46.9811583,60.611101 L46.9811583,60.6149145 L47.2874657,55.3773641 L46.9806528,44.1531856 C46.9730709,43.8426589 46.7461203,43.5996853 46.4645803,43.5996853 C46.1810184,43.5996853 45.9540679,43.8426589 45.9480024,44.1531856 L45.6755606,55.3779088 L45.9485078,60.6143697 C45.9545733,60.9216277 46.1815239,61.1651461 46.4650858,61.1651461 L46.4650858,61.1651461 Z M36.8543098,61.1161155 C37.0216164,61.1161155 37.1570791,60.9717478 37.1697155,60.7816183 L37.6135076,55.3713714 L37.1697155,50.2247999 C37.1575846,50.0346704 37.0221218,49.8913922 36.8543098,49.8913922 C36.684476,49.8913922 36.5490133,50.0357599 36.5383987,50.226979 L36.1476797,55.3713714 L36.5383987,60.7810735 C36.5495187,60.9717478 36.684476,61.1161155 36.8543098,61.1161155 L36.8543098,61.1161155 Z M33.1159434,60.8197532 C33.2382642,60.8197532 33.337334,60.7156995 33.3514868,60.5718766 L33.8498683,55.3702819 L33.3519923,49.972565 C33.337334,49.8281973 33.2382642,49.7241436 33.1159434,49.7241436 C32.9921063,49.7241436 32.8930365,49.8287421 32.8804001,49.972565 C32.8804001,49.9731098 32.4416626,55.3702819 32.4416626,55.3702819 L32.8804001,60.570787 C32.8925311,60.7151547 32.9916008,60.8197532 33.1159434,60.8197532 L33.1159434,60.8197532 Z M48.4323278,43.9663248 C48.1265258,43.9663248 47.8813787,44.2283657 47.8753132,44.5639525 L47.626628,55.3784536 L47.8753132,60.5822275 C47.8813787,60.913456 48.1260203,61.1754969 48.4323278,61.1754969 C48.7376243,61.1754969 48.981255,60.9140008 48.9883315,60.578414 L48.9883315,60.5827723 L49.2673442,55.3789984 L48.9883315,44.5628629 C48.981255,44.2283657 48.7376243,43.9663248 48.4323278,43.9663248 L48.4323278,43.9663248 Z M40.6533312,61.1711387 C40.8646126,61.1711387 41.0389955,60.9853674 41.0491047,60.7483865 L41.4372963,55.3751849 L41.0491047,45.0907583 C41.0384901,44.8532326 40.8646126,44.6680062 40.6533312,44.6680062 C40.440028,44.6680062 40.2661505,44.8537774 40.2570522,45.0907583 C40.2570522,45.0913031 39.9133409,55.3751849 39.9133409,55.3751849 L40.2575577,60.7505657 C40.2661505,60.9853674 40.440028,61.1711387 40.6533312,61.1711387 L40.6533312,61.1711387 Z M44.9881379,60.6639451 L44.9881379,60.6612211 L45.3217401,55.3768193 L44.9881379,43.8579128 C44.9800505,43.5719014 44.770791,43.3474505 44.512502,43.3474505 C44.2526967,43.3474505 44.0434371,43.5713566 44.0363607,43.8579128 L43.7401624,55.3762745 L44.0368662,60.6634003 C44.0439426,60.9466878 44.2532021,61.1705939 44.512502,61.1705939 C44.7712964,61.1705939 44.9795451,60.9466878 44.9881379,60.6617659 L44.9881379,60.6639451 L44.9881379,60.6639451 Z M70.2195838,48.7369956 C69.4275313,48.7369956 68.6718718,48.909692 67.9834382,49.2207635 C67.5234715,43.6051332 63.1542937,39.2000122 57.8247459,39.2000122 C56.5206646,39.2000122 55.2494381,39.4767623 54.1268162,39.9447315 C53.690606,40.1266893 53.5743507,40.3140949 53.570307,40.6774656 L53.570307,60.4531138 C53.5748562,60.8344623 53.8493198,61.1520712 54.1945475,61.1896613 C54.2092058,61.1912957 70.1159649,61.2000122 70.2190783,61.2000122 C73.4115503,61.2000122 76,58.4101749 76,54.9687763 C76,51.5273777 73.4120557,48.7369956 70.2195838,48.7369956 L70.2195838,48.7369956 Z M52.3885465,40.6600325 C52.041297,40.6600325 51.7562187,40.9672905 51.7511642,41.3448256 L51.4903479,55.3811775 L51.7516696,60.4754499 C51.7562187,60.8475372 52.041297,61.1542504 52.3885465,61.1542504 C52.7347852,61.1542504 53.0198634,60.8475372 53.024918,60.4700021 L53.024918,60.4759947 L53.3084799,55.3811775 L53.024918,41.3437361 C53.0198634,40.9672905 52.7347852,40.6600325 52.3885465,40.6600325 L52.3885465,40.6600325 Z" id="path-1"></path>
    </defs>
    <g id="Artist-page" stroke="none" stroke-width="1" fill="none" fill-rule="evenodd" sketch:type="MSPage">
        <g id="HTC-One" sketch:type="MSArtboardGroup" transform="translate(-29.000000, -682.000000)">
            <g id="Top-buttons" sketch:type="MSLayerGroup" transform="translate(-1.000000, 643.000000)">
                <g id="Soundcloud" transform="translate(1.000000, 0.000000)">
                    <g id="Soundcloud-logo">
                        <use fill="none" sketch:type="MSShapeGroup" xlink:href="#path-1"></use>
                        <use fill="none" xlink:href="#path-1"></use>
                        <use fill="#FFFFFF" fill-rule="evenodd" xlink:href="#path-1"></use>
                    </g>
                </g>
            </g>
        </g>
    </g>
</svg>