<svg width="36" height="37" viewBox="0 0 36 37" xmlns="http://www.w3.org/2000/svg" xmlns:xlink="http://www.w3.org/1999/xlink" xmlns:sketch="http://www.bohemiancoding.com/sketch/ns"><title>path3101</title><desc>Created with Sketch.</desc><defs><radialGradient cx="50.826%" cy="19.76%" fx="50.826%" fy="19.76%" id="a"><stop stop-color="#A9D03F" offset="0%"/><stop stop-color="#A9D03F" offset="7.105%"/><stop stop-color="#A1CC3E" offset="24.677%"/><stop stop-color="#94C93D" offset="45.57%"/><stop stop-color="#8DC540" offset="59.659%"/><stop stop-color="#84BC41" offset="79.658%"/><stop stop-color="#79B641" offset="100%"/></radialGradient><path d="M18.009.797c-9.886 0-17.9 8.175-17.9 18.261 0 10.086 8.014 18.262 17.9 18.262s17.9-8.176 17.9-18.262-8.014-18.261-17.9-18.261zm-2.627 9.531c5.256 0 10.786 1.103 14.826 3.523.544.315.922.789.922 1.658 0 .995-.784 1.711-1.688 1.711-.364 0-.581-.09-.922-.281-3.24-1.982-8.268-3.073-13.13-3.073-2.427 0-4.892.252-7.151.877-.26.067-.589.2-.918.2-.955 0-1.688-.771-1.688-1.745 0-.992.603-1.55 1.253-1.746 2.552-.767 5.4-1.124 8.496-1.124zm-.365 6.275c4.685 0 9.218 1.191 12.781 3.366.597.349.817.793.817 1.443 0 .791-.617 1.43-1.395 1.43-.388 0-.633-.16-.897-.317-2.912-1.763-6.947-2.934-11.367-2.934-2.267 0-4.223.324-5.842.764-.349.098-.544.203-.871.203-.77 0-1.398-.64-1.398-1.432 0-.777.369-1.311 1.113-1.525 2.012-.564 4.067-.999 7.058-.999zm.246 5.963c3.917 0 7.408.917 10.412 2.754.447.266.709.538.709 1.214 0 .658-.525 1.142-1.113 1.142-.289 0-.487-.102-.758-.271-2.594-1.601-5.829-2.443-9.262-2.443-1.915 0-3.843.251-5.646.633-.293.065-.662.18-.882.18-.68 0-1.133-.551-1.133-1.148 0-.767.434-1.149.974-1.255 2.211-.514 4.413-.808 6.7-.808z" id="b"/></defs><g transform="translate(0 -.797)" sketch:type="MSLayerGroup" fill="none"><use fill="url(#a)" sketch:type="MSShapeGroup" xlink:href="#b"/><use fill="#81B71A" xlink:href="#b"/><use fill="#fff" xlink:href="#b"/></g></svg>