<svg width="491" height="462" viewBox="0 0 491 462" xmlns="http://www.w3.org/2000/svg" xmlns:sketch="http://www.bohemiancoding.com/sketch/ns">
  <title>Bylarm – Oslo, march 4 — 7</title>
  <desc>Created with Sketch.</desc>
  <g sketch:type="MSShapeGroup" fill="#fff">
    <g id="Group">
      <g id="Shape">
        <path d="M403.178 162.978c0-8.102-6.888-16.449-17.22-16.449-10.086 0-17.22 8.347-17.22 16.449 0 8.102 6.888 16.449 17.22 16.449 10.332.246 17.22-8.102 17.22-16.449zm-7.134 0c0 5.647-4.182 10.066-9.84 10.066-5.658 0-9.84-4.419-9.84-10.066 0-5.647 4.182-10.066 9.84-10.066 5.658 0 9.84 4.419 9.84 10.066zM428.27 169.116c0-10.311-13.53-9.82-13.53-13.994 0-1.473.984-2.455 2.952-2.455 1.722 0 3.198 1.228 3.936 2.701l5.658-3.192c-2.214-3.683-5.658-5.647-9.594-5.647-5.658 0-9.84 4.419-9.84 9.084 0 9.575 13.284 8.838 13.284 14.239 0 2.21-1.722 3.683-3.69 3.683-3.198 0-4.428-2.701-4.92-4.665l-5.904 3.192c1.722 3.437 4.92 7.611 10.824 7.611 7.134 0 10.824-5.647 10.824-10.557zM454.1 178.936v-6.383h-13.776v-25.287h-6.888v31.67h20.664zM489.278 162.978c0-8.102-6.888-16.449-17.22-16.449-10.086 0-17.22 8.347-17.22 16.449 0 8.102 6.888 16.449 17.22 16.449 10.086.246 17.22-8.102 17.22-16.449zm-7.38 0c0 5.647-4.182 10.066-9.84 10.066-5.658 0-9.84-4.419-9.84-10.066 0-5.647 4.182-10.066 9.84-10.066 5.658 0 9.84 4.419 9.84 10.066z" />
      </g>
      <g id="Shape">
        <path d="M332.084 242.03v-31.67h-6.396l-9.594 11.784-9.594-11.784h-6.396v31.67h6.888v-21.113l9.348 11.048 9.348-11.048v21.113h6.396zM366.278 242.03l-12.3-31.67h-6.396l-12.3 31.67h7.134l2.214-6.383h11.808l2.214 6.383h7.626zm-11.562-12.275h-7.626l3.936-10.557 3.69 10.557zM396.782 242.03l-10.332-13.503c2.706-1.719 5.166-4.174 5.166-8.347 0-2.946-1.722-9.82-10.578-9.82h-10.578v31.67h6.888v-11.784h2.46l8.364 11.784h8.61zm-12.054-21.85c0 1.964-1.23 3.683-4.428 3.683h-2.952v-7.365h2.952c2.952.246 4.428 1.473 4.428 3.683zM425.81 219.444v-7.365c-2.706-1.473-6.888-2.455-10.578-2.455-9.348 0-17.22 7.12-17.22 16.449 0 8.838 7.872 16.449 17.22 16.449 3.198 0 7.38-1.228 10.578-2.946v-7.611c-2.952 2.701-6.396 4.174-10.086 4.174-5.412 0-10.578-3.928-10.578-10.066 0-5.156 3.936-10.066 10.332-10.066 3.198 0 6.888 1.228 10.332 3.437zM459.266 242.03v-31.67h-6.888v12.275h-13.53v-12.275h-6.888v31.67h6.888v-13.257h13.53v13.012h6.888v.246z" />
      </g>
      <g id="Shape">
        <path d="M408.59 299.477v-5.647h-4.182v-21.359l-24.354 27.251h17.958v5.401h6.396v-5.401h4.182v-.246zm-10.332-5.647h-5.658l5.658-6.138v6.138zM450.902 296.04v-4.91h-29.52v4.91h29.52zM490.262 273.454h-23.862v6.138h13.53l-12.546 25.532h7.38l15.498-31.67z" />
      </g>
    </g>
    <g>
      <g id="Shape">
        <path d="M148.814 72.878c0-13.503-11.316-22.341-21.156-24.55 7.626-3.192 14.76-10.802 14.76-20.868 0-13.257-9.84-27.251-32.718-27.251h-33.948v102.62h41.328c15.99-.246 31.734-10.311 31.734-29.951zm-27.798-43.208c0 7.365-5.166 11.539-13.53 11.539h-9.84v-22.341h9.594c9.348 0 13.776 4.91 13.776 10.802zm5.658 42.472c0 6.874-5.412 11.784-13.53 11.784h-15.498v-23.814h13.53c9.84 0 15.498 4.91 15.498 12.03zM256.808.21h-25.338l-22.14 36.58-22.14-36.58h-25.338l36.408 57.448v45.172h22.14v-45.172l36.408-57.448z" />
      </g>
      <g id="Shape">
        <path d="M67.142 281.801v-20.377h-44.772v-81.998h-22.14v102.62h66.912v-.246zM185.468 281.801l-39.852-102.62h-20.418l-39.852 102.62h23.37l7.38-21.113h38.376l7.38 21.113h23.616zm-37.884-40.017h-24.6l12.3-34.37 12.3 34.37z" />
      </g>
      <g>
        <path d="M205.148 461.018l-33.456-44.19c9.102-5.156 16.482-13.748 16.482-26.76 0-9.82-5.412-31.67-34.194-31.67h-33.948v102.62h22.14v-38.544h8.118l27.306 38.544h27.552zm-39.114-70.459c0 6.629-3.936 12.275-14.514 12.275h-9.594v-24.059h9.84c9.348 0 14.268 4.665 14.268 11.784zM331.1 461.018v-102.62h-20.91l-31.242 38.298-31.242-38.298h-20.91v102.62h22.14v-68.495l30.012 35.843 30.012-35.843v68.495h22.14z" />
      </g>
    </g>
  </g>
</svg>
